<svg data-v-42645e8a="" version="1.1" id="chat-icon" xmlns="http://www.w3.org/2000/svg"
    xmlns:xlink="http://www.w3.org/1999/xlink" x="0px" y="0px" viewBox="0 0 64 64"
    enable-background="new 0 0 64 64" xml:space="preserve"><path data-v-42645e8a="" d="M37.29718,18.9559l-0.0002,0.00013H26.70282C20.23908,18.95603,15,23.9031,15,30.00316&#10;&#9;c0,4.4507,2.78814,8.28273,6.80009,10.03378v4.02545c0,1.98223,1.26147,2.50237,2.80168,1.15595l4.75996-4.16846l7.93545,0.00023&#10;&#9;C43.75726,41.05011,49,36.10305,49,30.00302C49,23.90357,43.76048,18.9559,37.29718,18.9559z M27.20099,32.55972&#10;&#9;c-1.41042,0-2.55377-1.14339-2.55377-2.55377c0-1.41041,1.14335-2.55377,2.55377-2.55377c1.41038,0,2.55377,1.14335,2.55377,2.55377&#10;&#9;C29.75476,31.41633,28.61137,32.55972,27.20099,32.55972z M38.05446,32.55972c-1.41038,0-2.55377-1.14339-2.55377-2.55377&#10;&#9;c0-1.41041,1.14339-2.55377,2.55377-2.55377c1.41042,0,2.55377,1.14335,2.55377,2.55377&#10;&#9;C40.60823,31.41633,39.46487,32.55972,38.05446,32.55972z" fill="#ffffff"/></svg>